<svg xmlns="http://www.w3.org/2000/svg" width="1268" height="326"><defs><linearGradient id="b" x1="21.152%" x2="100%" y1="21.848%" y2="93.468%"><stop offset="0%" stop-color="#50B1FD" stop-opacity=".96"/><stop offset="100%" stop-color="#DE77DE" stop-opacity=".96"/></linearGradient><filter id="a" width="109.8%" height="109.8%" x="-4.9%" y="-4.3%" filterUnits="objectBoundingBox"><feOffset dy="2" in="SourceAlpha" result="shadowOffsetOuter1"/><feColorMatrix in="shadowBlurOuter1" result="shadowMatrixOuter1" values="0 0 0 0 1 0 0 0 0 1 0 0 0 0 1 0 0 0 0.5 0"/><feMerge><feMergeNode in="shadowMatrixOuter1"/><feMergeNode in="SourceGraphic"/></feMerge></filter></defs><g fill="none" fill-rule="evenodd"><g fill="url(#b)" filter="url(#a)"><path d="M163 0c90.022 0 163 72.978 163 163s-72.978 163-163 163S0 253.022 0 163 72.978 0 163 0Zm-3.035 32.001-2.3.033C82.529 33.836 7.373 106.038 39.71 209.826l.128-.06.17-.085c.666-.337 2.097-1.105 4.294-2.305l.648-.355c7.567-4.142 23.12-12.79 46.658-25.942 8.07 31.143 36.39 54.144 70.088 54.144 11.29 0 21.975-2.582 31.498-7.186l38.287 21.06c-67.582 40.567-122.657 31.134-165.224-28.3l-17.485 10.496c38.51 66.185 141.812 96.167 215.685 13.364-1.55-1.057-18.929-11.076-52.136-30.058 13.432-13.13 21.768-31.441 21.768-51.698 0-24.865-12.561-46.8-31.69-59.816l-.125-44.132c68.28 39.383 86.722 92.078 55.326 158.086l17.666 10.189c39.273-65.736 15.44-170.532-92.866-194.936-.176 1.88-.526 22.209-1.052 60.983a72.517 72.517 0 0 0-19.652-2.696c-38.356 0-69.744 29.799-72.234 67.487L52.886 179.3c0-78.766 36.46-121.07 109.378-126.91V32.012l-2.3-.01Zm2.067 100.096c17.214 0 31.17 13.941 31.17 31.139 0 17.197-13.956 31.138-31.17 31.138-17.215 0-31.17-13.94-31.17-31.138s13.955-31.139 31.17-31.139Z"/></g><g fill="#50B1FD" fill-rule="nonzero"><path d="M424.59 217V102.97h23.1v48.93h-2.1c0-11.48 1.47-21.105 4.41-28.875 2.94-7.77 7.315-13.65 13.125-17.64S476.18 99.4 484.86 99.4h1.26c8.82 0 16.135 1.995 21.945 5.985 5.81 3.99 10.15 9.87 13.02 17.64 2.87 7.77 4.305 17.395 4.305 28.875h-7.35c0-11.48 1.505-21.105 4.515-28.875s7.42-13.65 13.23-17.64c5.81-3.99 13.055-5.985 21.735-5.985h1.26c8.82 0 16.17 1.995 22.05 5.985 5.88 3.99 10.325 9.87 13.335 17.64 3.01 7.77 4.515 17.395 4.515 28.875V217h-29.19v-67.83c0-7.14-1.82-12.845-5.46-17.115-3.64-4.27-8.82-6.405-15.54-6.405-6.72 0-12.11 2.205-16.17 6.615-4.06 4.41-6.09 10.325-6.09 17.745V217h-29.19v-67.83c0-7.14-1.82-12.845-5.46-17.115-3.64-4.27-8.82-6.405-15.54-6.405-6.72 0-12.11 2.205-16.17 6.615-4.06 4.41-6.09 10.325-6.09 17.745V217h-29.19ZM688.56 217v-33.81h-4.83V145.6c0-6.58-1.61-11.48-4.83-14.7-3.22-3.22-8.19-4.83-14.91-4.83-3.5 0-7.7.07-12.6.21-4.9.14-9.835.315-14.805.525-4.97.21-9.415.455-13.335.735v-24.78c3.22-.28 6.86-.56 10.92-.84 4.06-.28 8.225-.455 12.495-.525s8.295-.105 12.075-.105c11.76 0 21.525 1.54 29.295 4.62 7.77 3.08 13.65 7.91 17.64 14.49s5.985 15.19 5.985 25.83V217h-23.1Zm-36.75 2.94c-8.26 0-15.505-1.47-21.735-4.41-6.23-2.94-11.06-7.14-14.49-12.6-3.43-5.46-5.145-12.04-5.145-19.74 0-8.4 2.065-15.26 6.195-20.58 4.13-5.32 9.94-9.31 17.43-11.97s16.275-3.99 26.355-3.99h26.46v17.43H660c-6.72 0-11.865 1.645-15.435 4.935-3.57 3.29-5.355 7.525-5.355 12.705s1.785 9.38 5.355 12.6c3.57 3.22 8.715 4.83 15.435 4.83 4.06 0 7.805-.735 11.235-2.205 3.43-1.47 6.3-3.99 8.61-7.56 2.31-3.57 3.605-8.435 3.885-14.595l7.14 8.19c-.7 7.98-2.625 14.7-5.775 20.16-3.15 5.46-7.49 9.625-13.02 12.495-5.53 2.87-12.285 4.305-20.265 4.305ZM816.87 259v-75.81l8.61-13.44c-.42 10.92-2.66 20.195-6.72 27.825-4.06 7.63-9.52 13.405-16.38 17.325-6.86 3.92-14.77 5.88-23.73 5.88-8.12 0-15.47-1.505-22.05-4.515s-12.215-7.21-16.905-12.6c-4.69-5.39-8.33-11.62-10.92-18.69-2.59-7.07-3.885-14.735-3.885-22.995v-4.41c0-8.12 1.33-15.715 3.99-22.785s6.405-13.23 11.235-18.48c4.83-5.25 10.57-9.38 17.22-12.39 6.65-3.01 14.105-4.515 22.365-4.515 9.52 0 17.78 2.03 24.78 6.09 7 4.06 12.495 9.975 16.485 17.745 3.99 7.77 6.195 17.255 6.615 28.455h-4.62v-48.72h23.1V259h-29.19Zm-30.66-63.21c5.74 0 10.99-1.295 15.75-3.885s8.575-6.37 11.445-11.34c2.87-4.97 4.305-10.815 4.305-17.535v-8.4c0-6.72-1.47-12.355-4.41-16.905-2.94-4.55-6.79-8.05-11.55-10.5-4.76-2.45-9.94-3.675-15.54-3.675-6.3 0-11.865 1.505-16.695 4.515s-8.61 7.28-11.34 12.81c-2.73 5.53-4.095 11.865-4.095 19.005 0 7.14 1.4 13.405 4.2 18.795 2.8 5.39 6.615 9.59 11.445 12.6s10.325 4.515 16.485 4.515ZM907.59 220.57c-13.16 0-23.345-4.34-30.555-13.02-7.21-8.68-10.815-21.56-10.815-38.64v-66.15h29.19v68.67c0 7 1.96 12.565 5.88 16.695 3.92 4.13 9.24 6.195 15.96 6.195 6.72 0 12.215-2.17 16.485-6.51s6.405-10.22 6.405-17.64v-67.41h29.19V217h-23.1v-48.51h2.31c0 11.48-1.47 21.07-4.41 28.77-2.94 7.7-7.35 13.51-13.23 17.43-5.88 3.92-13.23 5.88-22.05 5.88h-1.26ZM997.89 217V102.97h29.19V217h-29.19Zm-15.96-92.19v-21.84h45.15v21.84h-45.15Zm26.67-35.49c-5.74 0-9.975-1.505-12.705-4.515-2.73-3.01-4.095-6.825-4.095-11.445s1.365-8.4 4.095-11.34c2.73-2.94 6.965-4.41 12.705-4.41s9.94 1.47 12.6 4.41c2.66 2.94 3.99 6.72 3.99 11.34s-1.33 8.435-3.99 11.445-6.86 4.515-12.6 4.515ZM1050.18 217V102.97h23.1v48.93h-2.1c0-11.62 1.54-21.315 4.62-29.085s7.665-13.615 13.755-17.535c6.09-3.92 13.685-5.88 22.785-5.88h1.26c13.58 0 23.87 4.375 30.87 13.125s10.5 21.805 10.5 39.165V217h-29.19v-67.83c0-7-1.995-12.67-5.985-17.01-3.99-4.34-9.485-6.51-16.485-6.51-7.14 0-12.915 2.205-17.325 6.615s-6.615 10.325-6.615 17.745V217h-29.19ZM1244.85 217v-33.81h-4.83V145.6c0-6.58-1.61-11.48-4.83-14.7-3.22-3.22-8.19-4.83-14.91-4.83-3.5 0-7.7.07-12.6.21-4.9.14-9.835.315-14.805.525-4.97.21-9.415.455-13.335.735v-24.78c3.22-.28 6.86-.56 10.92-.84 4.06-.28 8.225-.455 12.495-.525s8.295-.105 12.075-.105c11.76 0 21.525 1.54 29.295 4.62 7.77 3.08 13.65 7.91 17.64 14.49s5.985 15.19 5.985 25.83V217h-23.1Zm-36.75 2.94c-8.26 0-15.505-1.47-21.735-4.41-6.23-2.94-11.06-7.14-14.49-12.6-3.43-5.46-5.145-12.04-5.145-19.74 0-8.4 2.065-15.26 6.195-20.58 4.13-5.32 9.94-9.31 17.43-11.97s16.275-3.99 26.355-3.99h26.46v17.43h-26.88c-6.72 0-11.865 1.645-15.435 4.935-3.57 3.29-5.355 7.525-5.355 12.705s1.785 9.38 5.355 12.6c3.57 3.22 8.715 4.83 15.435 4.83 4.06 0 7.805-.735 11.235-2.205 3.43-1.47 6.3-3.99 8.61-7.56 2.31-3.57 3.605-8.435 3.885-14.595l7.14 8.19c-.7 7.98-2.625 14.7-5.775 20.16-3.15 5.46-7.49 9.625-13.02 12.495-5.53 2.87-12.285 4.305-20.265 4.305Z"/></g></g></svg>
