<?xml version="1.0" encoding="UTF-8"?>
<svg width="296px" height="54px" viewBox="0 0 296 54" version="1.1" xmlns="http://www.w3.org/2000/svg" xmlns:xlink="http://www.w3.org/1999/xlink">
    <title>Green and White</title>
    <g id="Page-1" stroke="none" stroke-width="1" fill="none" fill-rule="evenodd">
        <g id="Extra-Small" transform="translate(-540, -540)" fill-rule="nonzero">
            <g id="On-Black" transform="translate(540, 443)">
                <g id="Green-and-White" transform="translate(0, 97)">
                    <g id="Green-Logo" fill="#009D39">
                        <rect id="Rectangle" opacity="0.2" x="16" y="0" width="32" height="38" rx="7"></rect>
                        <rect id="Rectangle" opacity="0.5" x="8" y="8" width="32" height="38" rx="7"></rect>
                        <rect id="Rectangle" x="0" y="16" width="32" height="38" rx="7"></rect>
                    </g>
                    <g id="recuerd0" transform="translate(73, 10)">
                        <path d="M1.071,35.19 C0.357,35.19 -1.42108547e-14,34.833 -1.42108547e-14,34.119 L-1.42108547e-14,12.75 C-1.42108547e-14,12.036 0.357,11.679 1.071,11.679 C1.785,11.679 2.142,12.036 2.142,12.75 L2.142,17.3145 C2.992,15.4955 4.27125,14.1015 5.97975,13.1325 C7.68825,12.1635 9.741,11.679 12.138,11.679 C12.852,11.679 13.209,12.036 13.209,12.75 C13.209,13.464 12.852,13.821 12.138,13.821 C9.078,13.821 6.698,14.552 4.998,16.014 C3.298,17.476 2.346,19.601 2.142,22.389 L2.142,34.119 C2.142,34.833 1.785,35.19 1.071,35.19 Z" id="Path" fill="#FFFFFF"></path>
                        <path d="M21.097,24.225 L21.097,26.316 C21.097,28.781 21.60275,30.51925 22.61425,31.53075 C23.62575,32.54225 25.381,33.048 27.88,33.048 L32.062,33.048 C34.357,33.048 36.0145,32.7335 37.0345,32.1045 C38.0545,31.4755 38.641,30.396 38.794,28.866 C38.828,28.509 38.93425,28.24125 39.11275,28.06275 C39.29125,27.88425 39.559,27.795 39.916,27.795 C40.256,27.795 40.5195,27.89275 40.7065,28.08825 C40.8935,28.28375 40.97,28.56 40.936,28.917 C40.766,31.076 39.9585,32.66125 38.5135,33.67275 C37.0685,34.68425 34.918,35.19 32.062,35.19 L27.88,35.19 C24.769,35.19 22.50375,34.48025 21.08425,33.06075 C19.66475,31.64125 18.955,29.393 18.955,26.316 L18.955,20.604 C18.955,17.459 19.66475,15.17675 21.08425,13.75725 C22.50375,12.33775 24.769,11.645 27.88,11.679 L32.062,11.679 C35.173,11.679 37.43825,12.38875 38.85775,13.80825 C40.27725,15.22775 40.987,17.493 40.987,20.604 L40.987,23.154 C40.987,23.868 40.63,24.225 39.916,24.225 L21.097,24.225 Z M27.88,13.821 C25.381,13.787 23.62575,14.27575 22.61425,15.28725 C21.60275,16.29875 21.097,18.071 21.097,20.604 L21.097,22.083 L38.845,22.083 L38.845,20.604 C38.845,18.105 38.33925,16.34975 37.32775,15.33825 C36.31625,14.32675 34.561,13.821 32.062,13.821 L27.88,13.821 Z" id="Shape" fill="#FFFFFF"></path>
                        <path d="M60.197,35.19 C57.086,35.19 54.82075,34.48025 53.40125,33.06075 C51.98175,31.64125 51.272,29.376 51.272,26.265 L51.272,20.553 C51.272,17.442 51.98175,15.17675 53.40125,13.75725 C54.82075,12.33775 57.086,11.645 60.197,11.679 L64.379,11.679 C66.878,11.679 68.76075,12.09975 70.02725,12.94125 C71.29375,13.78275 72.029,15.113 72.233,16.932 C72.267,17.289 72.18625,17.56525 71.99075,17.76075 C71.79525,17.95625 71.519,18.054 71.162,18.054 C70.839,18.054 70.5925,17.96475 70.4225,17.78625 C70.2525,17.60775 70.142,17.357 70.091,17.034 C69.938,15.861 69.428,15.03225 68.561,14.54775 C67.694,14.06325 66.3,13.821 64.379,13.821 L60.197,13.821 C57.698,13.787 55.94275,14.26725 54.93125,15.26175 C53.91975,16.25625 53.414,18.02 53.414,20.553 L53.414,26.265 C53.414,28.764 53.91975,30.51925 54.93125,31.53075 C55.94275,32.54225 57.698,33.048 60.197,33.048 L64.379,33.048 C66.3,33.048 67.694,32.80575 68.561,32.32125 C69.428,31.83675 69.938,31.008 70.091,29.835 C70.142,29.495 70.2525,29.24 70.4225,29.07 C70.5925,28.9 70.839,28.815 71.162,28.815 C71.519,28.815 71.79525,28.91275 71.99075,29.10825 C72.18625,29.30375 72.267,29.58 72.233,29.937 C72.029,31.739 71.29375,33.065 70.02725,33.915 C68.76075,34.765 66.878,35.19 64.379,35.19 L60.197,35.19 Z" id="Path" fill="#FFFFFF"></path>
                        <path d="M102.51,11.679 C103.224,11.679 103.581,12.036 103.581,12.75 L103.581,34.119 C103.581,34.833 103.224,35.19 102.51,35.19 C101.796,35.19 101.439,34.833 101.439,34.119 L101.439,31.161 C99.892,33.847 96.883,35.19 92.412,35.19 L90.984,35.19 C87.873,35.19 85.60775,34.48025 84.18825,33.06075 C82.76875,31.64125 82.059,29.376 82.059,26.265 L82.059,12.75 C82.059,12.036 82.416,11.679 83.13,11.679 C83.844,11.679 84.201,12.036 84.201,12.75 L84.201,26.265 C84.201,28.764 84.70675,30.51925 85.71825,31.53075 C86.72975,32.54225 88.485,33.048 90.984,33.048 L92.412,33.048 C95.234,33.048 97.4015,32.5635 98.9145,31.5945 C100.4275,30.6255 101.269,29.138 101.439,27.132 L101.439,12.75 C101.439,12.036 101.796,11.679 102.51,11.679 Z" id="Path" fill="#FFFFFF"></path>
                        <path d="M116.518,24.225 L116.518,26.316 C116.518,28.781 117.02375,30.51925 118.03525,31.53075 C119.04675,32.54225 120.802,33.048 123.301,33.048 L127.483,33.048 C129.778,33.048 131.4355,32.7335 132.4555,32.1045 C133.4755,31.4755 134.062,30.396 134.215,28.866 C134.249,28.509 134.35525,28.24125 134.53375,28.06275 C134.71225,27.88425 134.98,27.795 135.337,27.795 C135.677,27.795 135.9405,27.89275 136.1275,28.08825 C136.3145,28.28375 136.391,28.56 136.357,28.917 C136.187,31.076 135.3795,32.66125 133.9345,33.67275 C132.4895,34.68425 130.339,35.19 127.483,35.19 L123.301,35.19 C120.19,35.19 117.92475,34.48025 116.50525,33.06075 C115.08575,31.64125 114.376,29.393 114.376,26.316 L114.376,20.604 C114.376,17.459 115.08575,15.17675 116.50525,13.75725 C117.92475,12.33775 120.19,11.645 123.301,11.679 L127.483,11.679 C130.594,11.679 132.85925,12.38875 134.27875,13.80825 C135.69825,15.22775 136.408,17.493 136.408,20.604 L136.408,23.154 C136.408,23.868 136.051,24.225 135.337,24.225 L116.518,24.225 Z M123.301,13.821 C120.802,13.787 119.04675,14.27575 118.03525,15.28725 C117.02375,16.29875 116.518,18.071 116.518,20.604 L116.518,22.083 L134.266,22.083 L134.266,20.604 C134.266,18.105 133.76025,16.34975 132.74875,15.33825 C131.73725,14.32675 129.982,13.821 127.483,13.821 L123.301,13.821 Z" id="Shape" fill="#FFFFFF"></path>
                        <path d="M148.274,35.19 C147.56,35.19 147.203,34.833 147.203,34.119 L147.203,12.75 C147.203,12.036 147.56,11.679 148.274,11.679 C148.988,11.679 149.345,12.036 149.345,12.75 L149.345,17.3145 C150.195,15.4955 151.47425,14.1015 153.18275,13.1325 C154.89125,12.1635 156.944,11.679 159.341,11.679 C160.055,11.679 160.412,12.036 160.412,12.75 C160.412,13.464 160.055,13.821 159.341,13.821 C156.281,13.821 153.901,14.552 152.201,16.014 C150.501,17.476 149.549,19.601 149.345,22.389 L149.345,34.119 C149.345,34.833 148.988,35.19 148.274,35.19 Z" id="Path" fill="#FFFFFF"></path>
                        <path d="M175.083,35.19 C171.972,35.19 169.70675,34.48025 168.28725,33.06075 C166.86775,31.64125 166.158,29.376 166.158,26.265 L166.158,20.604 C166.158,17.493 166.86775,15.22775 168.28725,13.80825 C169.70675,12.38875 171.972,11.679 175.083,11.679 L186.048,11.679 L186.048,1.071 C186.048,0.357 186.405,0 187.119,0 C187.833,0 188.19,0.357 188.19,1.071 L188.19,34.119 C188.19,34.833 187.833,35.19 187.119,35.19 C186.405,35.19 186.048,34.833 186.048,34.119 L186.048,31.314 C185.334,32.589 184.25025,33.55375 182.79675,34.20825 C181.34325,34.86275 179.418,35.19 177.021,35.19 L175.083,35.19 Z M175.083,33.048 L177.021,33.048 C179.809,33.048 182.0105,32.58475 183.6255,31.65825 C185.2405,30.73175 186.048,29.342 186.048,27.489 L186.048,13.821 L175.083,13.821 C172.584,13.821 170.82875,14.32675 169.81725,15.33825 C168.80575,16.34975 168.3,18.105 168.3,20.604 L168.3,26.265 C168.3,28.764 168.80575,30.51925 169.81725,31.53075 C170.82875,32.54225 172.584,33.048 175.083,33.048 Z" id="Shape" fill="#FFFFFF"></path>
                        <path d="M208.48375,35.292 C204.79475,35.292 202.102375,34.444125 200.406625,32.748375 C198.710875,31.052625 197.863,28.36025 197.863,24.67125 L197.863,13.04325 C197.863,9.34575 198.71725,6.6565625 200.42575,4.9756875 C202.13425,3.2948125 204.82025,2.46075 208.48375,2.47335602 L211.54375,2.47335602 C215.237,2.47335602 217.930437,3.31925 219.624062,5.01075 C221.317687,6.70225 222.1645,9.39675 222.1645,13.09425 L222.1645,24.67125 C222.1645,28.36025 221.317687,31.052625 219.624062,32.748375 C217.930437,34.444125 215.237,35.292 211.54375,35.292 L208.48375,35.292 Z M208.48375,32.6145 L211.54375,32.6145 C213.503,32.6145 215.061687,32.3584375 216.219812,31.8463125 C217.377937,31.3341875 218.212,30.4990625 218.722,29.3409375 C219.232,28.1828125 219.487,26.62625 219.487,24.67125 L219.487,13.09425 C219.487,11.135 219.232,9.5763125 218.722,8.4181875 C218.212,7.2600625 217.377937,6.426 216.219812,5.916 C215.061687,5.406 213.503,5.15078661 211.54375,5.15078661 L208.48375,5.15078661 C206.52875,5.1425 204.972188,5.3879375 203.814063,5.8873125 C202.655938,6.3866875 201.820813,7.2133125 201.308687,8.3671875 C200.796562,9.5210625 200.5405,11.07975 200.5405,13.04325 L200.5405,24.67125 C200.5405,26.62625 200.7955,28.1828125 201.3055,29.3409375 C201.8155,30.4990625 202.649562,31.3341875 203.807687,31.8463125 C204.965812,32.3584375 206.5245,32.6145 208.48375,32.6145 Z M209.55475,20.8845 C208.57725,20.8845 208.0885,20.383 208.0885,19.38 L208.0885,18.411 C208.0885,17.442 208.57725,16.9575 209.55475,16.9575 L210.511,16.9575 C211.4715,16.9575 211.95175,17.442 211.95175,18.411 L211.95175,19.38 C211.95175,20.383 211.4715,20.8845 210.511,20.8845 L209.55475,20.8845 Z" id="Shape" fill="#009E3A"></path>
                    </g>
                </g>
            </g>
        </g>
    </g>
</svg>